<svg xmlns="http://www.w3.org/2000/svg" xmlns:xlink="http://www.w3.org/1999/xlink" version="1.0" x="0" y="0" width="2400" height="2400.235314462699" viewBox="139.4 94.39700164794922 61.2 61.20600051879883" preserveAspectRatio="xMidYMid meet" color-interpolation-filters="sRGB"><g><defs><linearGradient id="92" x1="0%" y1="0%" x2="100%" y2="0%"><stop offset="0%" stop-color="#fa71cd"></stop> <stop offset="100%" stop-color="#9b59b6"></stop></linearGradient><linearGradient id="93" x1="0%" y1="0%" x2="100%" y2="0%"><stop offset="0%" stop-color="#f9d423"></stop> <stop offset="100%" stop-color="#f83600"></stop></linearGradient><linearGradient id="94" x1="0%" y1="0%" x2="100%" y2="0%"><stop offset="0%" stop-color="#0064d2"></stop> <stop offset="100%" stop-color="#1cb0f6"></stop></linearGradient><linearGradient id="95" x1="0%" y1="0%" x2="100%" y2="0%"><stop offset="0%" stop-color="#f00978"></stop> <stop offset="100%" stop-color="#3f51b1"></stop></linearGradient><linearGradient id="96" x1="0%" y1="0%" x2="100%" y2="0%"><stop offset="0%" stop-color="#7873f5"></stop> <stop offset="100%" stop-color="#ec77ab"></stop></linearGradient><linearGradient id="97" x1="0%" y1="0%" x2="100%" y2="0%"><stop offset="0%" stop-color="#f9d423"></stop> <stop offset="100%" stop-color="#e14fad"></stop></linearGradient><linearGradient id="98" x1="0%" y1="0%" x2="100%" y2="0%"><stop offset="0%" stop-color="#009efd"></stop> <stop offset="100%" stop-color="#2af598"></stop></linearGradient><linearGradient id="99" x1="0%" y1="0%" x2="100%" y2="0%"><stop offset="0%" stop-color="#ffcc00"></stop> <stop offset="100%" stop-color="#00b140"></stop></linearGradient><linearGradient id="100" x1="0%" y1="0%" x2="100%" y2="0%"><stop offset="0%" stop-color="#d51007"></stop> <stop offset="100%" stop-color="#ff8177"></stop></linearGradient><linearGradient id="102" x1="0%" y1="0%" x2="100%" y2="0%"><stop offset="0%" stop-color="#a2b6df"></stop> <stop offset="100%" stop-color="#0c3483"></stop></linearGradient><linearGradient id="103" x1="0%" y1="0%" x2="100%" y2="0%"><stop offset="0%" stop-color="#7ac5d8"></stop> <stop offset="100%" stop-color="#eea2a2"></stop></linearGradient><linearGradient id="104" x1="0%" y1="0%" x2="100%" y2="0%"><stop offset="0%" stop-color="#00ecbc"></stop> <stop offset="100%" stop-color="#007adf"></stop></linearGradient><linearGradient id="105" x1="0%" y1="0%" x2="100%" y2="0%"><stop offset="0%" stop-color="#b88746"></stop> <stop offset="100%" stop-color="#fdf5a6"></stop></linearGradient></defs><g class="imagesvg isNoFont" transform="translate(140,94.99699974060059)"><g><rect fill="#000000" fill-opacity="0" stroke-width="2" x="0" y="0" width="60" height="60.006000600060005" class="image-rect"></rect> <svg x="0" y="0" width="60" height="60.006000600060005" filtersec="colorsb9202995996" class="image-svg-svg primary" style="overflow: visible;"><svg xmlns="http://www.w3.org/2000/svg" xmlns:xlink="http://www.w3.org/1999/xlink" version="1.1" id="图层_1" x="0px" y="0px" viewBox="0.7499995231628418 0.7399997711181641 98.25 98.26000213623047" enable-background="new 0 0 100 100" xml:space="preserve"> <g> <path fill-rule="evenodd" clip-rule="evenodd" fill="#bb2e2e" d="M92.93,35C96.57,38.45,99,44.59,99,51.6   c0,8.28-3.39,15.35-8.17,18.2l0-0.02c0.15,5.02-2.48,11.09-7.44,16.05c-5.96,5.96-13.51,8.55-18.93,7.02   c0.09,0.03,0.19,0.05,0.28,0.08C61.29,96.57,55.14,99,48.14,99c-8.28,0-15.36-3.39-18.2-8.17l0.02,0   c-5.02,0.15-11.09-2.48-16.05-7.44c-5.85-5.85-8.46-13.25-7.09-18.65c-3.65-3.45-6.07-9.59-6.07-16.6c0-8.28,3.39-15.35,8.17-18.2   v0.02c-0.15-5.02,2.48-11.09,7.44-16.05c5.95-5.95,13.49-8.55,18.91-7.02C35.17,6.86,35.09,6.83,35,6.81   c3.45-3.65,9.59-6.07,16.6-6.07c8.28,0,15.35,3.39,18.2,8.17l-0.02,0c5.02-0.15,11.09,2.48,16.05,7.44   c6.86,6.86,9.26,15.85,6.02,21.24c-0.19-0.69-0.41-1.38-0.64-2.07c0.05,0.88-0.02,1.98-0.2,3.24l0,0   c-0.82,5.62-3.8,14.44-7.01,21.82c-0.39-0.1-0.78-0.19-1.19-0.25c0.41,0.06,0.8,0.15,1.19,0.25c-2.22,5.13-4.55,9.56-6.34,11.75   c2.19-1.35,4.2-2.95,6.01-4.76c1.58-1.58,2.96-3.23,4.15-4.94l0.15,0.14l-0.15-0.14c5.19-7.46,6.56-16.02,4.03-25.05   C92.34,36.8,92.69,35.93,92.93,35L92.93,35z M9.55,33.51c0.03,0.08,0.06,0.17,0.1,0.25C9.61,33.68,9.58,33.59,9.55,33.51   L9.55,33.51z M9.67,33.83c0.03,0.08,0.07,0.16,0.1,0.25C9.74,33.99,9.7,33.91,9.67,33.83L9.67,33.83z M9.81,34.14   c0.03,0.08,0.07,0.16,0.11,0.23L9.81,34.14L9.81,34.14z M9.94,34.44c0.04,0.08,0.08,0.16,0.12,0.24   C10.02,34.6,9.98,34.52,9.94,34.44L9.94,34.44z M10.09,34.73c0.04,0.09,0.09,0.17,0.14,0.25C10.18,34.9,10.14,34.82,10.09,34.73   L10.09,34.73z M10.23,34.99c0.05,0.09,0.1,0.17,0.15,0.26C10.34,35.16,10.28,35.08,10.23,34.99L10.23,34.99z M10.41,35.28   c0.05,0.08,0.1,0.17,0.16,0.25C10.51,35.45,10.46,35.36,10.41,35.28L10.41,35.28z M10.59,35.56c0.06,0.08,0.11,0.17,0.17,0.25   C10.7,35.72,10.64,35.64,10.59,35.56L10.59,35.56z M10.77,35.82c0.06,0.08,0.12,0.16,0.19,0.25C10.9,35.98,10.83,35.9,10.77,35.82   L10.77,35.82z M10.97,36.08c0.06,0.08,0.13,0.16,0.19,0.23C11.1,36.24,11.04,36.16,10.97,36.08L10.97,36.08z M11.19,36.34   c0.14,0.16,0.29,0.32,0.44,0.47C11.47,36.66,11.33,36.5,11.19,36.34L11.19,36.34z M11.75,36.94c0.06,0.05,0.12,0.11,0.18,0.16   c-4.87,7.17-6.63,15.8-4.2,24.47c0-0.53,0-1.06,0.02-1.6c0.12-4.18,3.65-13.29,7.4-21.02c0.75,0.25,1.54,0.42,2.37,0.51   c-0.83-0.09-1.62-0.26-2.37-0.51c2.37-4.89,4.83-9.23,6.57-11.43c-2.02,1.29-3.89,2.8-5.57,4.48c-1.58,1.59-2.99,3.29-4.21,5.08   L11.75,36.94L11.75,36.94z M17.51,39.47c0.27,0.03,0.55,0.05,0.84,0.06C18.07,39.52,17.79,39.5,17.51,39.47L17.51,39.47z    M18.35,39.53c0.14,0.01,0.28,0.01,0.43,0.01C18.63,39.54,18.49,39.53,18.35,39.53L18.35,39.53z M18.78,39.54c0.11,0,0.21,0,0.32,0   C18.99,39.54,18.88,39.54,18.78,39.54L18.78,39.54z M21.88,39.24c-1.53,3.5-3.49,6.8-6.08,10.51c2.17,3.11,3.86,5.91,5.22,8.68   c-2.11-0.6-4.17-0.81-6.04-0.6c-0.39-1.63-0.65-3.06-0.78-4.19c-0.34,1.47-0.57,2.96-0.71,4.45l0,0c-0.06,0.68-0.1,1.36-0.12,2.04   c-0.33,11.22,4.5,21.52,14.21,27.27c-0.2-0.21-0.41-0.42-0.6-0.63c-4.08-4.32-9.85-19.84-12-28.95c1.88-0.21,3.93,0,6.04,0.6   c2.33,4.74,3.68,9.39,4.75,15.39c5.31,0.95,9.5,2.13,13.42,3.83h0c3.55,1.54,6.88,3.51,10.64,6.14c3.09-2.15,5.87-3.84,8.62-5.19   l0,0c4.76-2.34,9.43-3.7,15.45-4.78c0.94-5.25,2.1-9.4,3.78-13.29l0,0c1.55-3.6,3.54-6.97,6.19-10.78   c-2.1-3.01-3.75-5.73-5.09-8.42l0,0c-2.4-4.82-3.79-9.54-4.88-15.65c-5.16-0.92-9.34-2.06-13.42-3.84   c-3.43-1.5-6.8-3.45-10.65-6.13c-3.03,2.12-5.78,3.78-8.49,5.13c-4.8,2.38-9.51,3.76-15.59,4.85   C24.82,31.05,23.62,35.27,21.88,39.24L21.88,39.24L21.88,39.24z M41.87,18.28c0.01-0.12,0.03-0.25,0.04-0.37   C41.9,18.03,41.89,18.16,41.87,18.28L41.87,18.28z M41.92,17.82c0.09-0.98,0.09-1.93-0.01-2.85c1.52-0.42,2.79-0.71,3.7-0.82   c-1.31-0.28-2.62-0.49-3.95-0.62c-1.06-0.1-2.11-0.15-3.17-0.15c-11.5,0-21.41,5.22-26.96,15.28c0.2-0.21,0.41-0.42,0.62-0.63   c3.45-3.44,20.91-10.58,29.76-13.05C42.01,15.88,42.01,16.84,41.92,17.82L41.92,17.82z M39.26,9.18c-0.15-0.16-0.31-0.3-0.47-0.44   C38.95,8.88,39.11,9.02,39.26,9.18L39.26,9.18z M38.77,8.72c-0.08-0.07-0.16-0.13-0.24-0.2C38.61,8.59,38.69,8.65,38.77,8.72   L38.77,8.72z M38.51,8.51c-0.08-0.06-0.16-0.12-0.24-0.18C38.35,8.39,38.44,8.45,38.51,8.51L38.51,8.51z M38.25,8.31   C38.17,8.25,38.09,8.19,38,8.14C38.09,8.19,38.16,8.25,38.25,8.31L38.25,8.31z M37.98,8.12c-0.09-0.06-0.17-0.11-0.26-0.17   C37.81,8.01,37.9,8.07,37.98,8.12L37.98,8.12z M37.7,7.94c-0.08-0.05-0.17-0.1-0.25-0.15C37.53,7.84,37.62,7.89,37.7,7.94   L37.7,7.94z M37.42,7.78c-0.08-0.05-0.17-0.09-0.25-0.14C37.26,7.68,37.34,7.73,37.42,7.78L37.42,7.78z M37.13,7.62   c-0.09-0.05-0.18-0.09-0.27-0.13C36.96,7.53,37.04,7.57,37.13,7.62L37.13,7.62z M36.83,7.46c-0.08-0.04-0.17-0.08-0.26-0.12   C36.66,7.39,36.75,7.42,36.83,7.46L36.83,7.46z M36.54,7.33c-0.09-0.04-0.18-0.08-0.27-0.11C36.36,7.25,36.45,7.29,36.54,7.33   L36.54,7.33z M36.22,7.2c-0.08-0.03-0.17-0.06-0.25-0.1C36.06,7.14,36.14,7.17,36.22,7.2L36.22,7.2z M35.9,7.08   c-0.09-0.03-0.18-0.06-0.27-0.09C35.73,7.02,35.82,7.05,35.9,7.08L35.9,7.08z M35.6,6.98c-0.09-0.03-0.19-0.06-0.28-0.09   C35.42,6.92,35.51,6.95,35.6,6.98L35.6,6.98z M90.18,66.22c-0.03-0.08-0.06-0.16-0.09-0.24C90.12,66.06,90.15,66.14,90.18,66.22   L90.18,66.22z M90.06,65.91c-0.03-0.08-0.06-0.16-0.1-0.24C90,65.75,90.03,65.83,90.06,65.91L90.06,65.91z M89.93,65.59   c-0.03-0.08-0.07-0.15-0.1-0.23C89.86,65.44,89.89,65.51,89.93,65.59L89.93,65.59z M89.79,65.3c-0.04-0.08-0.08-0.16-0.12-0.24   C89.71,65.13,89.75,65.21,89.79,65.3L89.79,65.3z M89.65,65.01c-0.04-0.09-0.09-0.17-0.14-0.25C89.55,64.84,89.6,64.92,89.65,65.01   L89.65,65.01z M89.5,64.74c-0.05-0.09-0.1-0.17-0.16-0.26C89.4,64.57,89.45,64.66,89.5,64.74L89.5,64.74z M89.33,64.45   c-0.05-0.08-0.1-0.17-0.16-0.25C89.22,64.29,89.28,64.37,89.33,64.45L89.33,64.45z M89.14,64.17c-0.05-0.07-0.11-0.15-0.16-0.22   C89.04,64.02,89.09,64.09,89.14,64.17L89.14,64.17z M88.96,63.91c-0.06-0.08-0.12-0.15-0.17-0.23   C88.84,63.75,88.9,63.83,88.96,63.91L88.96,63.91z M88.75,63.64c-0.06-0.07-0.12-0.15-0.18-0.22   C88.63,63.49,88.69,63.57,88.75,63.64L88.75,63.64z M88.55,63.4c-0.14-0.16-0.28-0.32-0.44-0.47   C88.26,63.08,88.41,63.23,88.55,63.4L88.55,63.4z M64.43,92.85c-0.1-0.03-0.19-0.06-0.29-0.09C64.24,92.79,64.33,92.82,64.43,92.85   L64.43,92.85z M64.08,92.74c-0.09-0.03-0.17-0.06-0.26-0.09C63.91,92.68,63.99,92.71,64.08,92.74L64.08,92.74z M63.78,92.63   c-0.09-0.03-0.18-0.07-0.27-0.1C63.6,92.57,63.69,92.6,63.78,92.63L63.78,92.63z M63.46,92.52c-0.08-0.03-0.17-0.07-0.26-0.11   C63.29,92.44,63.38,92.48,63.46,92.52L63.46,92.52z M63.16,92.39c-0.09-0.04-0.17-0.08-0.25-0.11   C62.99,92.31,63.07,92.35,63.16,92.39L63.16,92.39z M62.85,92.25c-0.08-0.04-0.16-0.08-0.24-0.12   C62.69,92.16,62.77,92.21,62.85,92.25L62.85,92.25z M62.3,91.95c-0.09-0.05-0.18-0.1-0.26-0.16C62.12,91.85,62.21,91.9,62.3,91.95   L62.3,91.95z M62.01,91.78c-0.09-0.05-0.17-0.11-0.26-0.17C61.83,91.67,61.92,91.72,62.01,91.78L62.01,91.78z M61.74,91.6   c-0.08-0.06-0.16-0.11-0.25-0.17C61.57,91.49,61.65,91.55,61.74,91.6L61.74,91.6z M61.46,91.41c-0.08-0.06-0.16-0.12-0.24-0.18   C61.3,91.29,61.38,91.35,61.46,91.41L61.46,91.41z M61.21,91.21c-0.08-0.06-0.16-0.13-0.24-0.19   C61.05,91.08,61.13,91.15,61.21,91.21L61.21,91.21z M60.95,91c-0.16-0.14-0.32-0.29-0.48-0.44C60.63,90.71,60.79,90.86,60.95,91   L60.95,91z M58.67,87.93c-0.03-0.07-0.06-0.13-0.09-0.2C58.61,87.8,58.64,87.87,58.67,87.93L58.67,87.93z M58.59,87.73l-0.08-0.2   C58.53,87.6,58.56,87.67,58.59,87.73L58.59,87.73z M58.5,87.53c-0.05-0.14-0.1-0.27-0.15-0.41C58.4,87.25,58.45,87.39,58.5,87.53   L58.5,87.53z M58.35,87.11c-0.06-0.19-0.12-0.38-0.18-0.57c0.83,0.06,1.67,0.09,2.5,0.09c11.41,0,21.51-5.32,27.17-15.23   l-0.17,0.18C83.65,75.61,67.6,81.93,57.8,84.45c-0.04-0.45-0.05-0.92-0.05-1.4c-0.01,0.47,0.01,0.94,0.05,1.4   c-2.33,0.6-4.31,0.99-5.68,1.07c1.99,0.53,4.02,0.87,6.06,1.02C58.23,86.74,58.28,86.93,58.35,87.11L58.35,87.11z M62.3,91.95   L62.3,91.95c0.09,0.05,0.18,0.1,0.28,0.15l0.04,0.02L62.3,91.95L62.3,91.95z M39.4,82.77c-0.01,0.1-0.03,0.21-0.05,0.31   C39.37,82.97,39.38,82.87,39.4,82.77L39.4,82.77z M39.29,83.38c-0.09,0.41-0.19,0.8-0.32,1.18c-5.27-2.68-9.97-5.5-12.25-7.42   c1.24,2.08,2.71,4.02,4.36,5.77c1.8,1.92,3.79,3.6,5.9,5.01l-0.1,0.11l0.11-0.11c6.74,4.51,14.84,6.32,23.04,4.36   c-4.23-0.07-13.26-3.75-21.06-7.73C39.1,84.18,39.2,83.79,39.29,83.38L39.29,83.38z M36.81,88.11c-0.15,0.15-0.31,0.3-0.47,0.44   C36.5,88.41,36.66,88.26,36.81,88.11L36.81,88.11z M36.32,88.57c-0.08,0.07-0.16,0.13-0.23,0.19   C36.16,88.7,36.24,88.64,36.32,88.57L36.32,88.57z M36.07,88.78c-0.08,0.06-0.16,0.13-0.24,0.19C35.9,88.9,35.99,88.84,36.07,88.78   L36.07,88.78z M35.8,88.98c-0.08,0.06-0.16,0.12-0.25,0.17C35.64,89.09,35.72,89.04,35.8,88.98L35.8,88.98z M35.53,89.17   c-0.08,0.05-0.16,0.11-0.25,0.16C35.37,89.28,35.45,89.22,35.53,89.17L35.53,89.17z M35.25,89.35c-0.09,0.05-0.17,0.1-0.26,0.15   C35.08,89.45,35.17,89.4,35.25,89.35L35.25,89.35z M34.98,89.51c-0.08,0.05-0.17,0.09-0.25,0.14C34.82,89.6,34.9,89.55,34.98,89.51   L34.98,89.51z M34.68,89.67c-0.08,0.04-0.16,0.08-0.24,0.12C34.52,89.75,34.6,89.71,34.68,89.67L34.68,89.67z M34.38,89.82   l-0.23,0.11C34.22,89.9,34.3,89.86,34.38,89.82L34.38,89.82z M34.07,89.96c-0.08,0.03-0.16,0.07-0.25,0.1   C33.91,90.03,33.99,89.99,34.07,89.96L34.07,89.96z M33.76,90.09c-0.08,0.04-0.17,0.07-0.25,0.09   C33.59,90.16,33.68,90.13,33.76,90.09L33.76,90.09z M6.81,64.74c0.02-0.09,0.04-0.17,0.07-0.26C6.86,64.56,6.83,64.65,6.81,64.74   L6.81,64.74z M6.9,64.41c0.03-0.09,0.05-0.18,0.08-0.27C6.95,64.23,6.92,64.32,6.9,64.41L6.9,64.41z M6.99,64.09   c0.03-0.09,0.06-0.17,0.09-0.25C7.05,63.92,7.02,64.01,6.99,64.09L6.99,64.09z M7.11,63.76c0.03-0.08,0.06-0.16,0.09-0.24   C7.17,63.59,7.14,63.68,7.11,63.76L7.11,63.76z M7.22,63.47c0.03-0.09,0.07-0.18,0.11-0.26C7.29,63.29,7.25,63.38,7.22,63.47   L7.22,63.47z M7.35,63.16c0.04-0.09,0.08-0.17,0.11-0.25C7.43,62.99,7.39,63.07,7.35,63.16L7.35,63.16z M7.48,62.87   c0.04-0.09,0.09-0.18,0.13-0.27C7.57,62.69,7.53,62.78,7.48,62.87L7.48,62.87z M7.64,62.56c0.04-0.08,0.09-0.17,0.14-0.25   C7.73,62.4,7.68,62.48,7.64,62.56L7.64,62.56z M7.79,62.29c0.05-0.08,0.1-0.17,0.15-0.25C7.89,62.12,7.84,62.2,7.79,62.29   L7.79,62.29z M7.96,62.01c0.05-0.09,0.11-0.17,0.17-0.26C8.06,61.84,8.01,61.93,7.96,62.01L7.96,62.01z M8.14,61.73   c0.06-0.08,0.11-0.16,0.17-0.25C8.25,61.57,8.19,61.65,8.14,61.73L8.14,61.73z M8.33,61.46c0.06-0.08,0.12-0.16,0.18-0.24   C8.45,61.3,8.39,61.38,8.33,61.46L8.33,61.46z M8.52,61.2C8.67,61.02,8.82,60.83,8.52,61.2L8.52,61.2z M62.92,11.63   c0.15-0.15,0.31-0.3,0.47-0.44C63.24,11.33,63.08,11.47,62.92,11.63L62.92,11.63z M63.42,11.17c0.07-0.06,0.15-0.12,0.22-0.19   C63.57,11.04,63.49,11.1,63.42,11.17L63.42,11.17z M63.68,10.95c0.07-0.06,0.15-0.12,0.23-0.17   C63.83,10.84,63.75,10.89,63.68,10.95L63.68,10.95z M63.94,10.75c0.07-0.05,0.15-0.1,0.22-0.16C64.09,10.65,64.02,10.7,63.94,10.75   L63.94,10.75z M64.21,10.57c0.08-0.05,0.16-0.11,0.25-0.16C64.37,10.46,64.29,10.51,64.21,10.57L64.21,10.57z M64.49,10.39   c0.08-0.05,0.17-0.1,0.26-0.15C64.66,10.28,64.57,10.34,64.49,10.39L64.49,10.39z M64.75,10.23c0.08-0.05,0.17-0.09,0.25-0.14   C64.92,10.14,64.84,10.18,64.75,10.23L64.75,10.23z M65.05,10.07c0.08-0.04,0.16-0.08,0.24-0.12   C65.21,9.98,65.13,10.02,65.05,10.07L65.05,10.07z M65.36,9.91c0.08-0.04,0.15-0.07,0.23-0.11C65.51,9.84,65.44,9.88,65.36,9.91   L65.36,9.91z M65.67,9.77c0.08-0.03,0.16-0.07,0.24-0.1C65.83,9.7,65.75,9.74,65.67,9.77L65.67,9.77z M65.98,9.64   c0.08-0.03,0.16-0.06,0.24-0.09C66.14,9.58,66.06,9.61,65.98,9.64L65.98,9.64z M85.42,41.81c0.14-1.27,0.22-2.54,0.22-3.81   c0-12.44-5.85-22.43-16.98-27.74c4.74,4.11,13.87,23.37,16.11,31.64c-1.19,0.14-2.45,0.1-3.76-0.09c1.3,0.2,2.57,0.23,3.76,0.09   c0.17,0.64,0.3,1.21,0.39,1.7C85.27,43.01,85.35,42.42,85.42,41.81L85.42,41.81L85.42,41.81z M60.2,18.97c0-0.17,0-0.34,0.01-0.51   C60.2,18.63,60.2,18.8,60.2,18.97L60.2,18.97z M60.21,18.46c0.03-1.09,0.2-2.12,0.49-3.09c4.17,1.85,7.71,3.65,9.44,4.84   c-1.04-1.45-2.2-2.81-3.46-4.07c-1.39-1.39-2.87-2.64-4.43-3.76c-7.13-5.09-15.9-7.16-24.6-4.64c3.79-0.08,14.68,3.9,23.05,7.63   C60.4,16.33,60.24,17.37,60.21,18.46L60.21,18.46z M90.96,38.84L90.96,38.84L90.96,38.84L90.96,38.84l0.01-0.02l0,0l0.01-0.01l0,0   l0.01-0.01l0,0l0.01-0.01l0,0L91,38.79v0L91,38.78l0,0l0.01-0.01l0,0L90.96,38.84z"></path> </g> </svg></svg> </g></g><defs v-gra="od"></defs></g></svg>